<?xml version="1.0" encoding="utf-8"?>
<!-- Generator: Adobe Illustrator 24.3.2, SVG Export Plug-In . SVG Version: 6.00 Build 0)  -->
<svg version="1.1" id="Layer_1" xmlns="http://www.w3.org/2000/svg" xmlns:xlink="http://www.w3.org/1999/xlink" x="0px" y="0px"
	 viewBox="0 0 510.7 427.5" style="enable-background:new 0 0 510.7 427.5;" xml:space="preserve">
<style type="text/css">
	.st0{fill:#FFB627;stroke:#E2711D;stroke-width:4;stroke-miterlimit:10;}
	.st1{fill:#E2711D;}
	.st2{fill:#FFDEA9;}
</style>
<g>
	<polygon class="st0" points="328.6,162.1 183.2,162.3 110.7,288.3 183.6,414.2 329,414 401.5,287.9 	"/>
	<polygon class="st1" points="301.4,0 210,0.1 164.4,79.4 210.2,158.5 301.6,158.3 347.2,79.1 	"/>
	<polygon class="st1" points="154.6,212 357.4,211.7 384.9,265.3 123.7,265.7 	"/>
	<polygon class="st1" points="154.8,367.1 357.6,366.8 385,313.1 123.8,313.5 	"/>
	<g>
		<path class="st1" d="M97.6,288.4l79-137.4l158.5-0.2l79.4,137.1l-79,137.4l-158.5,0.2L97.6,288.4z M189.8,173.6l-66,114.8
			l66.4,114.6l132.4-0.2l66-114.8l-66.4-114.6L189.8,173.6z"/>
	</g>
	<g>
		<path class="st2" d="M0,307.7l81-140.8l122.1-28.3L240,258.4l-81,140.8L36.9,427.5L0,307.7z M92,181.8l-73.6,128l30.1,97.6
			l99.5-23.1l73.6-128l-30.1-97.6L92,181.8z"/>
	</g>
	<g>
		<path class="st2" d="M270.5,258.4l36.6-119.9l122.2,27.9L510.7,307l-36.6,119.9l-122.2-27.9L270.5,258.4z M318.7,158.6l-29.8,97.7
			l74,127.8l99.6,22.8l29.8-97.7l-74-127.8L318.7,158.6z"/>
	</g>
</g>
</svg>
