<?xml version="1.0" encoding="utf-8"?>
<!-- Generator: Adobe Illustrator 24.3.2, SVG Export Plug-In . SVG Version: 6.00 Build 0)  -->
<svg version="1.1" id="Layer_1" xmlns="http://www.w3.org/2000/svg" xmlns:xlink="http://www.w3.org/1999/xlink" x="0px" y="0px"
	 viewBox="0 0 445.5 514.4" style="enable-background:new 0 0 445.5 514.4;" xml:space="preserve">
<style type="text/css">
	.st0{fill:#E2711D;}
	.st1{fill:#FFC971;}
</style>
<g>
	<path class="st0" d="M394.7,166.4c-1.6,0-3.2-0.4-4.6-1.3l-172-100.7c-4.4-2.6-5.8-8.2-3.3-12.5c2.5-4.4,8.2-5.8,12.5-3.3
		l172,100.7c4.4,2.6,5.8,8.2,3.3,12.5C400.9,164.8,397.9,166.4,394.7,166.4z"/>
</g>
<g>
	<path class="st0" d="M222.7,465.8c-3.1,0-6.2-1.6-7.9-4.5c-2.6-4.4-1.1-10,3.3-12.5l172-100.7c4.4-2.6,10-1.1,12.5,3.3
		c2.6,4.4,1.1,10-3.3,12.5l-172,100.8C225.9,465.4,224.3,465.8,222.7,465.8z"/>
</g>
<g>
	<path class="st0" d="M52,365.1c-5.1,0-9.2-4.1-9.2-9.2V156.6c0-5.1,4.1-9.1,9.2-9.1s9.2,4.1,9.2,9.1V356
		C61.1,361,57,365.1,52,365.1z"/>
</g>
<polygon class="st1" points="11.1,134.2 11.1,378.4 222.5,500.4 434,378.4 434,134.2 222.5,12.1 "/>
<polygon class="st1" points="-153.4,121.8 -179.2,121.8 -192.1,144.1 -179.2,166.4 -153.4,166.4 -140.6,144.1 "/>
<g>
	<path class="st0" d="M222.7,514.4L0,385.8V128.6L222.7,0l222.7,128.6v257.2L222.7,514.4z M18.3,375.2l204.4,118l204.4-118V139.2
		l-204.4-118l-204.4,118V375.2z"/>
</g>
</svg>
