<?xml version="1.0" encoding="utf-8"?>
<!-- Generator: Adobe Illustrator 24.3.2, SVG Export Plug-In . SVG Version: 6.00 Build 0)  -->
<svg version="1.1" id="Layer_1" xmlns="http://www.w3.org/2000/svg" xmlns:xlink="http://www.w3.org/1999/xlink" x="0px" y="0px"
	 viewBox="0 0 406.1 218.2" style="enable-background:new 0 0 406.1 218.2;" xml:space="preserve">
<style type="text/css">
	.st0{display:none;}
	.st1{display:inline;fill:#FFC971;}
	.st2{fill:#E2711D;}
	.st3{fill:#CC5803;}
	.st4{fill:#FF9505;}
	.st5{fill:#FFC971;stroke:#FF0000;stroke-width:3;stroke-miterlimit:10;}
	.st6{fill:#FFDEA9;}
	.st7{fill:none;stroke:#CC5803;stroke-miterlimit:10;}
	.st8{fill:none;stroke:#E2711D;stroke-miterlimit:10;}
	.st9{fill:none;stroke:#FF9505;stroke-miterlimit:10;}
	.st10{fill:none;stroke:#FFDEA9;stroke-width:3;stroke-miterlimit:10;}
	.st11{fill:#FFB627;stroke:#E2711D;stroke-width:4;stroke-miterlimit:10;}
</style>
<g id="Layer_3" class="st0">
	<rect x="-71.8" y="-156.9" class="st1" width="576" height="576"/>
</g>
<g id="Layer_1_1_" class="st0">
	
		<image style="display:inline;overflow:visible;enable-background:new    ;" width="1504" height="598" xlink:href="25E83759.jpeg"  transform="matrix(0.3814 0 0 0.3814 -70.6662 -156.9362)">
	</image>
</g>
<g id="Layer_2_1_">
	<g>
		<path class="st2" d="M136.3,208.6l-73-42.1V82.2l73-42.2l73,42.1v84.3L136.3,208.6z M69.3,163l67,38.7l67-38.7V85.6l-67-38.7
			l-67,38.7L69.3,163L69.3,163z"/>
	</g>
	<polygon class="st3" points="-115.3,-144.9 -141,-144.9 -153.9,-122.6 -141,-100.3 -115.3,-100.3 -102.4,-122.6 	"/>
	<polygon class="st2" points="-115.3,-90.8 -141,-90.8 -153.9,-68.5 -141,-46.2 -115.3,-46.2 -102.4,-68.5 	"/>
	<polygon class="st4" points="-115.3,-36.6 -141,-36.6 -153.9,-14.3 -141,8 -115.3,8 -102.4,-14.3 	"/>
	<polygon class="st5" points="-115.3,71.6 -141,71.6 -153.9,93.9 -141,116.2 -115.3,116.2 -102.4,93.9 	"/>
	<polygon class="st6" points="-115.3,125.7 -141,125.7 -153.9,148 -141,170.3 -115.3,170.3 -102.4,148 	"/>
	<polygon class="st7" points="-180.6,-144.9 -206.4,-144.9 -219.2,-122.6 -206.4,-100.3 -180.6,-100.3 -167.8,-122.6 	"/>
	<polygon class="st8" points="-180.6,-90.8 -206.4,-90.8 -219.2,-68.5 -206.4,-46.2 -180.6,-46.2 -167.8,-68.5 	"/>
	<polygon class="st9" points="-180.6,-36.6 -206.4,-36.6 -219.2,-14.3 -206.4,8 -180.6,8 -167.8,-14.3 	"/>
	<polygon class="st10" points="-180.6,125.7 -206.4,125.7 -219.2,148 -206.4,170.3 -180.6,170.3 -167.8,148 	"/>
	<g>
		<path class="st2" d="M192.7,94.6c-0.5,0-1-0.1-1.5-0.4l-56.4-33c-1.4-0.8-1.9-2.7-1.1-4.1c0.8-1.4,2.7-1.9,4.1-1.1l56.4,33
			c1.4,0.8,1.9,2.7,1.1,4.1C194.7,94,193.7,94.6,192.7,94.6z"/>
	</g>
	<g>
		<path class="st2" d="M66.3,86.6c-0.5,0-1-0.1-1.5-0.4l-56.4-33c-1.4-0.8-1.9-2.7-1.1-4.1c0.8-1.4,2.7-1.9,4.1-1.1l56.4,33
			c1.4,0.8,1.9,2.7,1.1,4.1C68.3,86.1,67.3,86.6,66.3,86.6z"/>
	</g>
	<g>
		<path class="st2" d="M136.3,192.7c-1,0-2-0.5-2.6-1.5c-0.8-1.4-0.4-3.3,1.1-4.1l56.4-33c1.4-0.8,3.3-0.4,4.1,1.1
			c0.8,1.4,0.4,3.3-1.1,4.1l-56.4,33C137.3,192.6,136.8,192.7,136.3,192.7z"/>
	</g>
	<g>
		<path class="st2" d="M206.3,86.6c-1,0-2-0.5-2.6-1.5c-0.8-1.4-0.4-3.3,1.1-4.1l73-42.8l71,41l44.6-25.7c1.4-0.8,3.3-0.3,4.1,1.1
			c0.8,1.4,0.3,3.3-1.1,4.1l-47.6,27.5l-71-41l-70,41C207.3,86.5,206.8,86.6,206.3,86.6z"/>
	</g>
	<g>
		<path class="st2" d="M9.9,200.5c-1,0-2-0.5-2.6-1.5c-0.8-1.4-0.4-3.3,1.1-4.1l56.4-33c1.4-0.8,3.3-0.4,4.1,1.1
			c0.8,1.4,0.4,3.3-1.1,4.1l-56.4,33C10.9,200.3,10.4,200.5,9.9,200.5z"/>
	</g>
	<g>
		<path class="st2" d="M80.3,159.7c-1.7,0-3-1.3-3-3V91.3c0-1.7,1.3-3,3-3s3,1.3,3,3v65.3C83.3,158.3,82,159.7,80.3,159.7z"/>
	</g>
	<g>
		<polygon class="st11" points="67.9,52.4 81.4,74.3 107.2,73.5 119.3,50.8 105.8,28.9 80,29.8 		"/>
		<polygon class="st2" points="46,71.6 54.5,85.4 70.7,84.9 78.3,70.6 69.8,56.9 53.6,57.4 		"/>
		<polygon class="st2" points="91.6,74 72.7,43.5 78.2,34.4 102.5,73.7 		"/>
		<polygon class="st2" points="114.9,59.5 96,29 85.4,29.9 109.7,69.2 		"/>
		<g>
			<path class="st2" d="M108.4,75.5l-28,0.9L65.5,52.5l13.2-24.7l28-0.9l14.8,23.8L108.4,75.5z M82.5,72.3l23.4-0.7L117,50.9
				L104.7,31l-23.4,0.7L70.2,52.4L82.5,72.3z"/>
		</g>
		<g>
			<path class="st6" d="M120.4,88.4l-28.7,0.9L76,73.5l14.6-16.7l28.7-0.9L135,71.7L120.4,88.4z M92.9,86.2l26.1-0.8l11.9-13.6
				l-12.7-12.8L92,59.8L80.1,73.4L92.9,86.2z"/>
		</g>
		<g>
			<path class="st6" d="M87.8,52.2l-21.5,5.7l-7.2-21l13.6-25.3l21.5-5.7l7.2,21L87.8,52.2z M68.3,54.3l17.5-4.6l12.3-23L92.3,9.5
				l-17.5,4.6l-12.3,23L68.3,54.3z"/>
		</g>
	</g>
</g>
</svg>
